<svg xmlns="http://www.w3.org/2000/svg" width="86.003" height="98.684" viewBox="0 0 86.003 98.684"><g transform="translate(-40 20.685)"><g transform="translate(49.006 70.052)"><path d="M128.245,213.729a1.774,1.774,0,0,1-.741,1.5,2.548,2.548,0,0,1-.8.385,3.478,3.478,0,0,1-.972.133h-3.768v-7.806h4.174a1.547,1.547,0,0,1,.736.176,1.846,1.846,0,0,1,.56.456,2.091,2.091,0,0,1,.357.638,2.165,2.165,0,0,1,.126.72,2.133,2.133,0,0,1-.286,1.072,1.742,1.742,0,0,1-.835.742,2.013,2.013,0,0,1,1.06.709A2.05,2.05,0,0,1,128.245,213.729Zm-4.767-4.5V211.2H125.5a.9.9,0,0,0,.654-.264.967.967,0,0,0,.269-.725,1,1,0,0,0-.247-.715.8.8,0,0,0-.61-.264Zm3.24,4.21a1.133,1.133,0,0,0-.072-.4,1.12,1.12,0,0,0-.192-.335.9.9,0,0,0-.286-.225.8.8,0,0,0-.362-.082h-2.329v2.056h2.252a.984.984,0,0,0,.389-.077.944.944,0,0,0,.314-.214,1.045,1.045,0,0,0,.286-.72Z" transform="translate(-121.961 -207.88)" fill="#949293"/><path d="M140.372,214.454a1.742,1.742,0,0,0,.906-.22,1.767,1.767,0,0,0,.593-.572,2.362,2.362,0,0,0,.319-.808,4.718,4.718,0,0,0,.093-.94v-3.979h1.5v3.979a5.7,5.7,0,0,1-.192,1.506,3.449,3.449,0,0,1-.6,1.231,2.892,2.892,0,0,1-1.06.837,3.584,3.584,0,0,1-1.549.307,3.541,3.541,0,0,1-1.587-.324,2.951,2.951,0,0,1-1.06-.857,3.423,3.423,0,0,1-.588-1.237,5.837,5.837,0,0,1-.181-1.462v-3.979h1.516v3.979a4.7,4.7,0,0,0,.093.952,2.359,2.359,0,0,0,.318.807,1.747,1.747,0,0,0,.588.567A1.727,1.727,0,0,0,140.372,214.454Z" transform="translate(-127.828 -207.88)" fill="#949293"/><path d="M153.6,215.741v-7.806h1.516v6.475h3.976v1.331Z" transform="translate(-133.391 -207.88)" fill="#949293"/><path d="M167.051,215.741v-7.806h1.516v6.475h3.976v1.331Z" transform="translate(-138.252 -207.88)" fill="#949293"/><path d="M184.785,209.945a1.951,1.951,0,0,0-.28-.209,3.472,3.472,0,0,0-.495-.258,4.231,4.231,0,0,0-.632-.214,2.756,2.756,0,0,0-.692-.088,1.552,1.552,0,0,0-.934.231.764.764,0,0,0-.308.649.666.666,0,0,0,.116.4.989.989,0,0,0,.334.28,2.788,2.788,0,0,0,.555.22c.223.067.481.136.774.209q.571.155,1.038.33a2.789,2.789,0,0,1,.791.44,1.806,1.806,0,0,1,.5.632,2.1,2.1,0,0,1,.176.907,2.258,2.258,0,0,1-.236,1.072,2,2,0,0,1-.637.72,2.759,2.759,0,0,1-.923.4,4.626,4.626,0,0,1-1.093.126,5.846,5.846,0,0,1-1.736-.264,5.352,5.352,0,0,1-1.537-.748l.67-1.308a2.065,2.065,0,0,0,.357.258,5.346,5.346,0,0,0,.61.319,4.757,4.757,0,0,0,.78.269,3.517,3.517,0,0,0,.878.111q1.252,0,1.252-.8a.664.664,0,0,0-.142-.429,1.218,1.218,0,0,0-.406-.308,3.91,3.91,0,0,0-.637-.241c-.249-.074-.528-.154-.835-.242a7.034,7.034,0,0,1-.972-.335,2.54,2.54,0,0,1-.687-.429,1.6,1.6,0,0,1-.413-.572,1.992,1.992,0,0,1-.137-.775,2.427,2.427,0,0,1,.22-1.055,2.127,2.127,0,0,1,.61-.77,2.776,2.776,0,0,1,.906-.467,3.746,3.746,0,0,1,1.11-.159,4.3,4.3,0,0,1,1.516.258,5.7,5.7,0,0,1,1.208.609Z" transform="translate(-142.755 -207.845)" fill="#949293"/><path d="M199.9,214.41v1.331h-5.415v-7.806H199.8v1.33H196v1.88h3.284v1.232H196v2.033Z" transform="translate(-148.166 -207.88)" fill="#949293"/><path d="M208.629,207.935l1.922,3.76,1.955-3.76h1.637l-2.834,5.079v2.727h-1.5v-2.748l-2.823-5.057Z" transform="translate(-152.205 -207.88)" fill="#949293"/><path d="M228.485,214.41v1.331H223.07v-7.806h5.316v1.33h-3.8v1.88h3.284v1.232h-3.284v2.033Z" transform="translate(-158.495 -207.88)" fill="#949293"/></g><ellipse cx="43.001" cy="43.208" rx="43.001" ry="43.208" transform="translate(40 -20.685)" fill="#949293"/><ellipse cx="39.808" cy="39.839" rx="39.808" ry="39.839" transform="translate(43.194 -17.488)" fill="#fff"/><ellipse cx="3.992" cy="3.996" rx="3.992" ry="3.996" transform="translate(79.009 18.528)" fill="#949293"/></g></svg>