<svg xmlns="http://www.w3.org/2000/svg" width="176" height="20" viewBox="0 0 176 20">
  <g id="Logo" transform="translate(-85.556 -180.098)">
    <g id="Group_13" data-name="Group 13">
      <path id="Path_31" data-name="Path 31" d="M95.942,189.742H102.8V198a10.1,10.1,0,0,1-3.159,1.6,12.286,12.286,0,0,1-3.5.5,11.877,11.877,0,0,1-4.338-.759,9.985,9.985,0,0,1-3.345-2.095,9.2,9.2,0,0,1-2.146-3.17,10.351,10.351,0,0,1-.755-3.982,10.974,10.974,0,0,1,.715-4.024,9.077,9.077,0,0,1,2.046-3.162,9.267,9.267,0,0,1,3.22-2.068,11.482,11.482,0,0,1,4.219-.739,12.052,12.052,0,0,1,2.266.2,10.973,10.973,0,0,1,1.954.55,8.989,8.989,0,0,1,1.635.833,8.9,8.9,0,0,1,1.325,1.048l-1.3,2a1.242,1.242,0,0,1-.788.578,1.372,1.372,0,0,1-1.039-.242c-.355-.214-.687-.4-1-.557a6.017,6.017,0,0,0-.959-.382,6.167,6.167,0,0,0-1.033-.215,9.887,9.887,0,0,0-1.219-.067,5.489,5.489,0,0,0-2.266.45,4.851,4.851,0,0,0-1.715,1.269,5.732,5.732,0,0,0-1.093,1.967,8.032,8.032,0,0,0-.385,2.559,8.334,8.334,0,0,0,.425,2.766,5.744,5.744,0,0,0,1.2,2.042,5.112,5.112,0,0,0,1.855,1.269,6.344,6.344,0,0,0,2.391.437,6.133,6.133,0,0,0,1.464-.161,8.044,8.044,0,0,0,1.278-.431v-2.968H96.843a.915.915,0,0,1-.662-.229.763.763,0,0,1-.239-.577Z" fill="#949394"/>
      <path id="Path_32" data-name="Path 32" d="M124.753,190.091a10.649,10.649,0,0,1-.722,3.949A9.534,9.534,0,0,1,122,197.217a9.316,9.316,0,0,1-3.16,2.116,11.381,11.381,0,0,1-8.206,0,9.392,9.392,0,0,1-3.173-2.116,9.5,9.5,0,0,1-2.039-3.177,11.147,11.147,0,0,1,0-7.9,9.25,9.25,0,0,1,5.212-5.28,10.682,10.682,0,0,1,4.107-.764,10.54,10.54,0,0,1,4.1.771,9.28,9.28,0,0,1,5.193,5.286A10.611,10.611,0,0,1,124.753,190.091Zm-4.583,0a8.565,8.565,0,0,0-.371-2.612,5.568,5.568,0,0,0-1.066-1.968,4.616,4.616,0,0,0-1.7-1.236,5.784,5.784,0,0,0-2.291-.43,5.87,5.87,0,0,0-2.311.43,4.613,4.613,0,0,0-1.709,1.236,5.554,5.554,0,0,0-1.067,1.968,9.428,9.428,0,0,0,0,5.238,5.558,5.558,0,0,0,1.067,1.967,4.531,4.531,0,0,0,1.709,1.229,5.943,5.943,0,0,0,2.311.424,5.855,5.855,0,0,0,2.291-.424,4.534,4.534,0,0,0,1.7-1.229,5.572,5.572,0,0,0,1.066-1.967A8.616,8.616,0,0,0,120.17,190.091Z" fill="#949394"/>
      <path id="Path_33" data-name="Path 33" d="M139.021,196.256v3.627H127.39v-19.57h4.478v15.943Z" fill="#949394"/>
      <path id="Path_34" data-name="Path 34" d="M158.812,190.091a10.388,10.388,0,0,1-.722,3.915,9.019,9.019,0,0,1-5.193,5.145,11.047,11.047,0,0,1-4.1.732h-7.5v-19.57h7.5a10.948,10.948,0,0,1,4.1.739,9.375,9.375,0,0,1,3.16,2.041,9.114,9.114,0,0,1,2.033,3.1A10.351,10.351,0,0,1,158.812,190.091Zm-4.583,0a8.629,8.629,0,0,0-.371-2.619,5.615,5.615,0,0,0-1.067-1.981,4.627,4.627,0,0,0-1.7-1.249,5.7,5.7,0,0,0-2.291-.437H145.8V196.39H148.8a5.7,5.7,0,0,0,2.291-.437,4.625,4.625,0,0,0,1.7-1.248,5.628,5.628,0,0,0,1.067-1.982A8.674,8.674,0,0,0,154.229,190.091Z" fill="#949394"/>
      <path id="Path_35" data-name="Path 35" d="M165.967,183.8v4.567h6.066v3.358h-6.066v4.661h7.922v3.492H161.463v-19.57h12.426V183.8Z" fill="#949394"/>
      <path id="Path_36" data-name="Path 36" d="M193.494,180.313v19.57h-2.331a2,2,0,0,1-.868-.168,2.129,2.129,0,0,1-.7-.584l-9.1-11.673q.053.524.073,1.014c.014.327.019.634.019.92v10.49h-3.947v-19.57H179a3.751,3.751,0,0,1,.489.027,1.277,1.277,0,0,1,.358.1,1.186,1.186,0,0,1,.3.208,3.535,3.535,0,0,1,.331.362l9.18,11.753q-.066-.564-.093-1.094t-.026-1V180.313Z" fill="#949394"/>
      <path id="Path_37" data-name="Path 37" d="M213.1,191.26v6.756a11.353,11.353,0,0,1-2.993,1.545,11.147,11.147,0,0,1-3.577.537,10.923,10.923,0,0,1-4-.692,8.331,8.331,0,0,1-4.947-5.03,11.409,11.409,0,0,1-.67-4,11.567,11.567,0,0,1,.657-4,8.572,8.572,0,0,1,1.881-3.062,8.349,8.349,0,0,1,2.961-1.961,10.47,10.47,0,0,1,3.908-.691,12.442,12.442,0,0,1,1.98.147,9.088,9.088,0,0,1,1.689.437,7.973,7.973,0,0,1,1.457.712,9.874,9.874,0,0,1,1.3.974l-.371.591a.378.378,0,0,1-.555.148,2.614,2.614,0,0,1-.57-.376,5.8,5.8,0,0,0-1.021-.617,8.6,8.6,0,0,0-1.609-.578,9.234,9.234,0,0,0-2.338-.255,8.826,8.826,0,0,0-3.3.591,6.953,6.953,0,0,0-2.517,1.693,7.5,7.5,0,0,0-1.6,2.685,10.6,10.6,0,0,0-.563,3.559,10.8,10.8,0,0,0,.563,3.6,7.429,7.429,0,0,0,1.63,2.713,7.051,7.051,0,0,0,2.589,1.706,9.4,9.4,0,0,0,3.432.592,10.268,10.268,0,0,0,1.544-.108,9.518,9.518,0,0,0,1.351-.3,8.7,8.7,0,0,0,1.245-.483q.6-.289,1.225-.652V192.32h-3.59a.34.34,0,0,1-.244-.094.288.288,0,0,1-.1-.214v-.753Z" fill="#949394"/>
      <path id="Path_38" data-name="Path 38" d="M230.532,199.883h-1.166a.873.873,0,0,1-.378-.073.763.763,0,0,1-.284-.276l-6.015-7.71a1.784,1.784,0,0,0-.218-.255.885.885,0,0,0-.251-.168,1.316,1.316,0,0,0-.331-.088,3.516,3.516,0,0,0-.471-.027h-2.45v8.6H217.6V180.877h4.8a7.741,7.741,0,0,1,4.842,1.269,4.461,4.461,0,0,1,1.609,3.728,5.162,5.162,0,0,1-.371,1.987,4.647,4.647,0,0,1-1.066,1.578,5.551,5.551,0,0,1-1.683,1.108,7.855,7.855,0,0,1-2.218.578,2.158,2.158,0,0,1,.57.537Zm-8.319-9.618a7.657,7.657,0,0,0,2.233-.3,4.781,4.781,0,0,0,1.669-.867,3.735,3.735,0,0,0,1.04-1.356,4.309,4.309,0,0,0,.357-1.787,3.519,3.519,0,0,0-1.305-3.008,6.269,6.269,0,0,0-3.809-.981h-3.431v8.3Z" fill="#949394"/>
      <path id="Path_39" data-name="Path 39" d="M235.049,199.883h-1.365V180.877h1.365Z" fill="#949394"/>
      <path id="Path_40" data-name="Path 40" d="M256.377,190.373a11.4,11.4,0,0,1-.65,3.963,8.562,8.562,0,0,1-1.827,2.994,7.9,7.9,0,0,1-2.829,1.894,9.732,9.732,0,0,1-3.636.658h-6.849V180.877h6.849a9.732,9.732,0,0,1,3.636.659,7.909,7.909,0,0,1,2.829,1.893,8.575,8.575,0,0,1,1.827,3A11.354,11.354,0,0,1,256.377,190.373Zm-1.4,0a10.761,10.761,0,0,0-.544-3.546,7.41,7.41,0,0,0-1.537-2.633,6.568,6.568,0,0,0-2.384-1.638,8.1,8.1,0,0,0-3.073-.564h-5.484v16.776h5.484a8.1,8.1,0,0,0,3.073-.564,6.556,6.556,0,0,0,2.384-1.638,7.4,7.4,0,0,0,1.537-2.633A10.8,10.8,0,0,0,254.973,190.373Z" fill="#949394"/>
      <path id="Path_41" data-name="Path 41" d="M259.106,198.849a1.261,1.261,0,0,1,.093-.483,1.186,1.186,0,0,1,.258-.4,1.285,1.285,0,0,1,.385-.269,1.136,1.136,0,0,1,.483-.1,1.153,1.153,0,0,1,.476.1,1.266,1.266,0,0,1,.656.666,1.212,1.212,0,0,1,.1.483,1.194,1.194,0,0,1-.1.49,1.3,1.3,0,0,1-.266.39,1.177,1.177,0,0,1-.391.262,1.213,1.213,0,0,1-.476.094,1.17,1.17,0,0,1-.868-.356A1.2,1.2,0,0,1,259.106,198.849Z" fill="#949394"/>
    </g>
  </g>
</svg>
