<svg xmlns="http://www.w3.org/2000/svg" width="120" height="20" viewBox="0 0 120 20"><g transform="translate(-217.06 -371.049)"><path d="M217.06,371.552H225.9V375h-2.18v12.184h2.18v3.45H217.06v-3.45h2.14V375h-2.14Z" fill="#949293"/><path d="M236,371.049h6.174v16.135h2.752v3.45H237.98v-.5a8.5,8.5,0,0,1-1.507.553,6.138,6.138,0,0,1-1.561.2,8.051,8.051,0,0,1-2.977-.534,7.091,7.091,0,0,1-2.331-1.467,6.816,6.816,0,0,1-1.525-7.546,6.58,6.58,0,0,1,1.5-2.158,7,7,0,0,1,2.3-1.448,8,8,0,0,1,2.951-.53,8.277,8.277,0,0,1,1.662.159,8.185,8.185,0,0,1,1.485.445V374.5H236Zm-.858,16.363a3.522,3.522,0,0,0,1.628-.43,3.657,3.657,0,0,0,1.207-1.056v-3.84a3.282,3.282,0,0,0-1.233-1.039,3.891,3.891,0,0,0-2.931-.131,3.305,3.305,0,0,0-1.09.681,3.182,3.182,0,0,0-.743,1.056,3.688,3.688,0,0,0,0,2.789,3.141,3.141,0,0,0,.743,1.058,3.226,3.226,0,0,0,1.09.659A4.291,4.291,0,0,0,235.144,387.412Z" fill="#949293"/><path d="M250.393,384.933l.04.391a2.524,2.524,0,0,0,.512.992,3.285,3.285,0,0,0,.852.719,4,4,0,0,0,1.09.434,5.123,5.123,0,0,0,1.213.144,9.54,9.54,0,0,0,1.164-.067,10.844,10.844,0,0,0,1.07-.191c.346-.078.681-.172,1.007-.277s.66-.216,1-.333l1.5,2.579c-.518.3-.992.544-1.422.75a9.8,9.8,0,0,1-1.3.509,8.415,8.415,0,0,1-1.388.3,13.788,13.788,0,0,1-1.719.1,8.864,8.864,0,0,1-3.271-.562,7.04,7.04,0,0,1-2.4-1.515,6.456,6.456,0,0,1-1.485-2.24,7.3,7.3,0,0,1-.51-2.718,6.768,6.768,0,0,1,.538-2.695,6.569,6.569,0,0,1,1.519-2.2,7.19,7.19,0,0,1,2.343-1.478,8.107,8.107,0,0,1,3.026-.542,7.941,7.941,0,0,1,2.949.509,6.085,6.085,0,0,1,3.537,3.525,7.712,7.712,0,0,1,.518,2.612,6.139,6.139,0,0,1,.048.622,6,6,0,0,1-.022.637Zm3.257-4.759a4.4,4.4,0,0,0-1.3.169,2.756,2.756,0,0,0-.906.467,2.355,2.355,0,0,0-.584.673,3.627,3.627,0,0,0-.341.792h5.9a3.922,3.922,0,0,0-.272-.8,2.156,2.156,0,0,0-.49-.667,2.291,2.291,0,0,0-.8-.461A3.7,3.7,0,0,0,253.65,380.174Z" fill="#949293"/><path d="M271.569,389.929q-.477.277-.872.472a5.1,5.1,0,0,1-.79.314,4.853,4.853,0,0,1-.818.177,7.046,7.046,0,0,1-.927.056,7.417,7.417,0,0,1-2.268-.32,5.164,5.164,0,0,1-1.69-.88,3.885,3.885,0,0,1-1.056-1.323,3.9,3.9,0,0,1,.008-3.329,3.706,3.706,0,0,1,1.082-1.315,5.3,5.3,0,0,1,1.738-.856,8.23,8.23,0,0,1,2.351-.308,14.815,14.815,0,0,1,1.764.1c.532.063,1.024.141,1.479.231v-.4a1.694,1.694,0,0,0-.2-.848,1.643,1.643,0,0,0-.572-.591,2.647,2.647,0,0,0-.886-.341,5.553,5.553,0,0,0-1.132-.108,9.718,9.718,0,0,0-2.256.234,8.888,8.888,0,0,0-1.873.672l-1.309-2.442a11.979,11.979,0,0,1,2.909-1.345,10.879,10.879,0,0,1,3.223-.467,10.4,10.4,0,0,1,2.446.272,5.114,5.114,0,0,1,1.928.88,4.182,4.182,0,0,1,1.261,1.594,5.661,5.661,0,0,1,.457,2.39v4.745h1.893v3.45h-5.886Zm-3.106-1.951a5.051,5.051,0,0,0,1.756-.291,5.237,5.237,0,0,0,1.35-.7v-1.659H268.3a2.2,2.2,0,0,0-.614.086,1.946,1.946,0,0,0-.538.251,1.33,1.33,0,0,0-.381.4,1.066,1.066,0,0,0-.143.555,1.222,1.222,0,0,0,.457.969A2.082,2.082,0,0,0,268.463,387.978Z" fill="#949293"/><path d="M279.636,371.049h6.16v6.835a8.159,8.159,0,0,1,1.513-.5,7.109,7.109,0,0,1,1.595-.178,7.652,7.652,0,0,1,2.9.542,7.185,7.185,0,0,1,2.3,1.472,6.9,6.9,0,0,1,1.521,2.179,6.456,6.456,0,0,1,.55,2.642,6.611,6.611,0,0,1-2.044,4.827,7.15,7.15,0,0,1-2.3,1.461,7.847,7.847,0,0,1-2.929.536,8.624,8.624,0,0,1-1.636-.153,8.17,8.17,0,0,1-1.472-.428v.353h-4.184V374.5h-1.976Zm8.981,9.628a3.3,3.3,0,0,0-2.822,1.461v3.9a3.227,3.227,0,0,0,1.166.975,3.524,3.524,0,0,0,1.628.37,3.789,3.789,0,0,0,1.322-.231,3.306,3.306,0,0,0,1.1-.669,3.146,3.146,0,0,0,.743-1.044,3.357,3.357,0,0,0,.272-1.379,3.522,3.522,0,0,0-.272-1.409,3.264,3.264,0,0,0-.735-1.07,3.213,3.213,0,0,0-1.084-.673A3.723,3.723,0,0,0,288.617,380.677Z" fill="#949293"/><path d="M298.006,384.063a6.446,6.446,0,0,1,.558-2.667,6.73,6.73,0,0,1,1.555-2.179,7.4,7.4,0,0,1,2.371-1.472,8.73,8.73,0,0,1,6.057,0,7.383,7.383,0,0,1,2.377,1.472,6.668,6.668,0,0,1,1.548,2.179,6.515,6.515,0,0,1,.55,2.667,6.721,6.721,0,0,1-.537,2.676,6.549,6.549,0,0,1-1.528,2.189,7.192,7.192,0,0,1-2.371,1.479,9.04,9.04,0,0,1-6.158,0,7.178,7.178,0,0,1-2.365-1.473,6.555,6.555,0,0,1-1.519-2.183A6.748,6.748,0,0,1,298.006,384.063Zm4.075,0a3.381,3.381,0,0,0,.272,1.367,3.31,3.31,0,0,0,.743,1.075,3.414,3.414,0,0,0,1.09.706,3.512,3.512,0,0,0,1.328.252,3.64,3.64,0,0,0,1.342-.245,3.174,3.174,0,0,0,1.078-.7,3.274,3.274,0,0,0,.713-1.075,3.545,3.545,0,0,0,.258-1.379,3.658,3.658,0,0,0-.258-1.409,3.035,3.035,0,0,0-1.791-1.744,3.6,3.6,0,0,0-1.342-.219,3.558,3.558,0,0,0-1.328.219,3.3,3.3,0,0,0-1.09.673,3.193,3.193,0,0,0-.743,1.07A3.522,3.522,0,0,0,302.08,384.063Z" fill="#949293"/><path d="M323.337,387.184h.806l-1.759-1.547-1.825,1.547h.912v3.45h-6.649v-3.45h1.4l3.5-3.17-3.244-2.973h-1.662v-3.448h6.649v3.448h-.64l1.65,1.348,1.579-1.348h-.749v-3.448h6.636v3.448h-1.555l-3.257,2.986,3.447,3.157h1.4v3.45h-6.65Z" fill="#949293"/><path d="M331.774,388.594a2.286,2.286,0,0,1,.2-.942,2.408,2.408,0,0,1,.56-.781,2.654,2.654,0,0,1,.85-.534,2.8,2.8,0,0,1,1.05-.2,2.663,2.663,0,0,1,1.015.2,2.723,2.723,0,0,1,.846.528,2.445,2.445,0,0,1,.564.787,2.281,2.281,0,0,1-.006,1.9,2.483,2.483,0,0,1-.566.78,2.787,2.787,0,0,1-.83.523,2.716,2.716,0,0,1-1.023.194,2.79,2.79,0,0,1-1.9-.717,2.267,2.267,0,0,1-.56-.773A2.385,2.385,0,0,1,331.774,388.594Z" fill="#949293"/></g></svg>