<svg xmlns="http://www.w3.org/2000/svg" width="86.004" height="99.998" viewBox="0 0 86.004 99.998">
  <g id="Logo" transform="translate(-67.893 -58.996)">
    <g id="Group_14" data-name="Group 14">
      <path id="Path_42" data-name="Path 42" d="M83.17,151.237v7.626H81.724l-3.792-4.631v4.631H76.193v-7.626h1.456l3.782,4.63v-4.63Z" fill="#949394"/>
      <path id="Path_43" data-name="Path 43" d="M86.622,155.05a4.168,4.168,0,1,1,4.162,3.943A3.941,3.941,0,0,1,86.622,155.05Zm6.541,0a2.38,2.38,0,1,0-2.379,2.44A2.323,2.323,0,0,0,93.163,155.05Z" fill="#949394"/>
      <path id="Path_44" data-name="Path 44" d="M103.243,158.863l-1.467-2.125h-1.619v2.125H98.4v-7.626h3.293c2.032,0,3.3,1.056,3.3,2.767a2.479,2.479,0,0,1-1.565,2.408l1.706,2.452Zm-1.651-6.188h-1.435v2.658h1.435c1.075,0,1.619-.5,1.619-1.329S102.668,152.675,101.592,152.675Z" fill="#949394"/>
      <path id="Path_45" data-name="Path 45" d="M108.033,155.05a4.185,4.185,0,0,1,7.258-2.593l-1.13,1.046a2.446,2.446,0,0,0-1.913-.893,2.44,2.44,0,0,0,0,4.88,2.422,2.422,0,0,0,1.913-.9l1.13,1.046a4.179,4.179,0,0,1-7.258-2.582Z" fill="#949394"/>
      <path id="Path_46" data-name="Path 46" d="M117.962,155.05a4.168,4.168,0,1,1,4.162,3.943A3.941,3.941,0,0,1,117.962,155.05Zm6.541,0a2.38,2.38,0,1,0-2.38,2.44A2.323,2.323,0,0,0,124.5,155.05Z" fill="#949394"/>
      <path id="Path_47" data-name="Path 47" d="M129.737,151.237h1.76v6.188h3.814v1.438h-5.575Z" fill="#949394"/>
      <path id="Path_48" data-name="Path 48" d="M138.428,151.237h3.456c2.489,0,4.194,1.5,4.194,3.813s-1.706,3.813-4.194,3.813h-3.456Zm3.369,6.177a2.368,2.368,0,1,0,0-4.728h-1.608v4.728Z" fill="#949394"/>
    </g>
    <ellipse id="Ellipse_4" data-name="Ellipse 4" cx="41.491" cy="41.598" rx="41.491" ry="41.598" transform="translate(69.404 60.507)" fill="none" stroke="#949394" stroke-miterlimit="10" stroke-width="3.021"/>
    <g id="Group_15" data-name="Group 15">
      <path id="Path_49" data-name="Path 49" d="M104.992,100.768v11.182H99.344v-10.31c0-3.158-1.448-4.611-3.947-4.611-2.716,0-4.671,1.671-4.671,5.264v9.657H85.077V92.418h5.4v2.287a8.518,8.518,0,0,1,6.445-2.578C101.516,92.128,104.992,94.814,104.992,100.768Z" fill="#949394"/>
      <path id="Path_50" data-name="Path 50" d="M108.868,102.183c0-5.881,4.526-10.056,10.863-10.056,4.092,0,7.315,1.779,8.727,4.973l-4.381,2.36a4.856,4.856,0,0,0-4.381-2.686c-2.861,0-5.106,2-5.106,5.409s2.245,5.409,5.106,5.409a4.791,4.791,0,0,0,4.381-2.686l4.381,2.4c-1.412,3.122-4.635,4.937-8.727,4.937C113.394,112.24,108.868,108.065,108.868,102.183Z" fill="#949394"/>
      <path id="Path_51" data-name="Path 51" d="M131.064,108.682a3.513,3.513,0,0,1,7.025,0,3.513,3.513,0,1,1-7.025,0Z" fill="#949394"/>
    </g>
  </g>
</svg>
